<svg id="Layer_1" data-name="Layer 1" xmlns="http://www.w3.org/2000/svg" viewBox="0 0 512 640"><defs><style>.cls-1,.cls-5{fill:#d10b0b;}.cls-2{isolation:isolate;font-size:5px;font-family:HelveticaNeue-Bold, Helvetica Neue;font-weight:700;}.cls-3{letter-spacing:-0.02em;}.cls-4{letter-spacing:0em;}.cls-5{stroke:#224cc4;stroke-miterlimit:10;}</style></defs><title>Artboard 1</title><path d="M277.88,167.17H207.65a66,66,0,0,0,2.45-8.86h23.49a17.72,17.72,0,0,0,2.68-35.24,22.16,22.16,0,0,0-32.83-9.67A66.36,66.36,0,0,0,145,78.58a65.66,65.66,0,0,0-38.36,12.2A17.45,17.45,0,0,0,99,87.64,22.13,22.13,0,0,0,78.56,74.15c-.51,0-1,0-1.52,0A17.74,17.74,0,0,0,68,69.92a22.16,22.16,0,0,0-40.79,0,17.72,17.72,0,0,0,2.67,35.24H43.12a17.72,17.72,0,0,0,17.72,17.71h21.5a66.79,66.79,0,0,0,0,44.3H16.55a4.43,4.43,0,0,0-4.43,4.43V277.9a4.43,4.43,0,0,0,4.43,4.43H277.88a4.43,4.43,0,0,0,4.43-4.43V171.6A4.43,4.43,0,0,0,277.88,167.17Zm-79.17-35.44a4.43,4.43,0,0,0,4.29-3.32,13.29,13.29,0,0,1,25.74,0,4.44,4.44,0,0,0,4.29,3.32h.56a8.86,8.86,0,0,1,0,17.72H198.15a8.86,8.86,0,0,1,0-17.72ZM114,105.16a17.7,17.7,0,0,0-1.68-7.54A56.92,56.92,0,0,1,145,87.44a57.5,57.5,0,0,1,52,32.75,22.36,22.36,0,0,0-1.48,2.88,17.72,17.72,0,0,0,2.67,35.24H201a56.19,56.19,0,0,1-2.87,8.86H91.84a57.65,57.65,0,0,1,0-44.3h4.44A17.72,17.72,0,0,0,114,105.16Zm57.59,88.58h4.13a57.63,57.63,0,0,1-61.42,0h13a4.43,4.43,0,1,0,0-8.85H103.46a57.91,57.91,0,0,1-7-8.86h97.05a58.59,58.59,0,0,1-7,8.86h-15a4.43,4.43,0,1,0,0,8.85ZM29.83,96.3a8.86,8.86,0,0,1,0-17.72h.56a4.43,4.43,0,0,0,4.29-3.33,13.29,13.29,0,0,1,25.74,0,4.44,4.44,0,0,0,4.29,3.33h.56a8.86,8.86,0,0,1,0,17.72Zm31,17.71A8.86,8.86,0,0,1,52,105.16H65.27A17.73,17.73,0,0,0,83,87.45a17.44,17.44,0,0,0-.42-3.81A13.26,13.26,0,0,1,91.43,93a4.43,4.43,0,0,0,4.29,3.33h.56a8.78,8.78,0,0,1,6.23,2.56c.16.17.32.34.49.54A8.84,8.84,0,0,1,96.28,114Zm212.61,70.88H264.6a4.43,4.43,0,1,0,0,8.85h8.85v8.86H251.31a4.43,4.43,0,0,0,0,8.86h22.14v8.86H229.16a4.43,4.43,0,1,0,0,8.86h44.29V238H246.88a4.43,4.43,0,0,0,0,8.86h26.57v8.86h-62a4.43,4.43,0,0,0,0,8.86h62v8.85H21v-8.85H83a4.43,4.43,0,1,0,0-8.86H21V246.9H47.55a4.43,4.43,0,0,0,0-8.86H21v-8.86H65.27a4.43,4.43,0,0,0,0-8.86H21v-8.86H43.12a4.43,4.43,0,0,0,0-8.86H21v-8.86h8.85a4.43,4.43,0,1,0,0-8.85H21V176H86.23A66.17,66.17,0,0,0,96.4,190.32a4.44,4.44,0,0,0,3.3,3.31,67,67,0,0,0,15.24,10.67,4.43,4.43,0,0,0,3.48,7.16h22.15a4.6,4.6,0,0,0,.91-.09c1.17.06,2.34.09,3.52.09a67,67,0,0,0,10.68-.85,4.45,4.45,0,0,0,2.61.85h13.29a4.42,4.42,0,0,0,3.48-7.16,67,67,0,0,0,15.24-10.67,4.46,4.46,0,0,0,3.31-3.31A66.47,66.47,0,0,0,203.77,176h69.68Z"/><path d="M153.86,184.89H145a4.43,4.43,0,1,0,0,8.85h8.86a4.43,4.43,0,1,0,0-8.85Z"/><path d="M153.86,220.32H136.14a4.43,4.43,0,1,0,0,8.86h17.72a4.43,4.43,0,0,0,0-8.86Z"/><path d="M224.73,21a9.84,9.84,0,0,1,8.86,5.47l.47.94a4.43,4.43,0,0,0,7.92,0l.47-.94A9.84,9.84,0,0,1,251.31,21a4.43,4.43,0,1,0,0-8.86A18.63,18.63,0,0,0,238,17.64a18.63,18.63,0,0,0-13.29-5.5,4.43,4.43,0,1,0,0,8.86Z"/><path d="M233.59,47.57a4.43,4.43,0,0,0,0,8.86,9.85,9.85,0,0,1,8.86,5.48l.47.93a4.43,4.43,0,0,0,7.92,0l.47-.93a9.85,9.85,0,0,1,8.86-5.48,4.43,4.43,0,1,0,0-8.86,18.69,18.69,0,0,0-13.29,5.5A18.71,18.71,0,0,0,233.59,47.57Z"/><path d="M193.72,38.71a9.84,9.84,0,0,1,8.86,5.48l.47.93a4.42,4.42,0,0,0,5.94,2,4.32,4.32,0,0,0,2-2l.47-.93a9.86,9.86,0,0,1,8.86-5.48,4.43,4.43,0,0,0,0-8.86A18.73,18.73,0,0,0,207,35.35a18.69,18.69,0,0,0-13.29-5.5,4.43,4.43,0,0,0,0,8.86Z"/><path d="M182.76,79.87a4.42,4.42,0,0,0,6-1.61h0l11.1-19.17a4.43,4.43,0,1,0-7.66-4.44L181.14,73.82A4.43,4.43,0,0,0,182.76,79.87Z"/><path d="M101.41,78.12a4.43,4.43,0,0,0,7.67-4.42L98,54.5a4.43,4.43,0,1,0-7.71,4.35l0,.07Z"/><path d="M65.26,149.32h0a4.43,4.43,0,0,0,0-8.86l-22.15,0h0a4.43,4.43,0,1,0,0,8.86Z"/><path d="M145,69.72a4.43,4.43,0,0,0,4.43-4.43V25.42a4.43,4.43,0,0,0-8.86,0V65.29A4.43,4.43,0,0,0,145,69.72Z"/><path d="M193.72,255.76h-8.85a4.43,4.43,0,1,0,0,8.86h8.85a4.43,4.43,0,1,0,0-8.86Z"/><path d="M74.13,238H65.27a4.43,4.43,0,1,0,0,8.86h8.86a4.43,4.43,0,1,0,0-8.86Z"/><path d="M220.3,246.9h8.86a4.43,4.43,0,0,0,0-8.86H220.3a4.43,4.43,0,0,0,0,8.86Z"/><path d="M109.56,255.76h-8.85a4.43,4.43,0,1,0,0,8.86h8.85a4.43,4.43,0,0,0,0-8.86Z"/><path d="M238,193.74h8.86a4.43,4.43,0,1,0,0-8.85H238a4.43,4.43,0,1,0,0,8.85Z"/><path d="M56.41,184.89H47.55a4.43,4.43,0,1,0,0,8.85h8.86a4.43,4.43,0,1,0,0-8.85Z"/><path class="cls-1" d="M496.91,484.45H426.68a66,66,0,0,0,2.45-8.86h23.49a17.72,17.72,0,0,0,2.67-35.23,22.15,22.15,0,0,0-32.82-9.68A66.36,66.36,0,0,0,364,395.86a65.66,65.66,0,0,0-38.36,12.2,17.57,17.57,0,0,0-7.69-3.14,22.14,22.14,0,0,0-20.39-13.49c-.51,0-1,0-1.52.06A17.67,17.67,0,0,0,287,387.2a22.16,22.16,0,0,0-40.79,0,17.72,17.72,0,0,0,2.67,35.24h13.29a17.72,17.72,0,0,0,17.72,17.71h21.5a66.79,66.79,0,0,0,0,44.3H235.58a4.43,4.43,0,0,0-4.43,4.43V595.19a4.42,4.42,0,0,0,4.43,4.42H496.91a4.42,4.42,0,0,0,4.43-4.42V488.88A4.43,4.43,0,0,0,496.91,484.45ZM417.74,449a4.42,4.42,0,0,0,4.29-3.32,13.29,13.29,0,0,1,25.74,0,4.43,4.43,0,0,0,4.29,3.32h.56a8.86,8.86,0,0,1,0,17.72H417.18a8.86,8.86,0,1,1,0-17.72ZM333,422.44a17.7,17.7,0,0,0-1.68-7.54A56.92,56.92,0,0,1,364,404.72a57.5,57.5,0,0,1,52,32.75,21.85,21.85,0,0,0-1.48,2.89,17.72,17.72,0,0,0,2.67,35.23h2.88a56.19,56.19,0,0,1-2.87,8.86H310.87a57.65,57.65,0,0,1,0-44.3h4.44A17.72,17.72,0,0,0,333,422.44ZM390.61,511h4.13a57.67,57.67,0,0,1-61.42,0h13a4.43,4.43,0,1,0,0-8.86H322.49a57.91,57.91,0,0,1-7-8.86h97.05a58.59,58.59,0,0,1-7,8.86h-15a4.43,4.43,0,0,0,0,8.86ZM248.86,413.58a8.86,8.86,0,0,1,0-17.72h.56a4.43,4.43,0,0,0,4.29-3.33,13.3,13.3,0,0,1,25.74,0,4.44,4.44,0,0,0,4.29,3.33h.56a8.86,8.86,0,1,1,0,17.72Zm31,17.72a8.86,8.86,0,0,1-8.86-8.86H284.3A17.73,17.73,0,0,0,302,404.73a17.44,17.44,0,0,0-.42-3.81,13.26,13.26,0,0,1,8.86,9.33,4.43,4.43,0,0,0,4.29,3.33h.56a8.78,8.78,0,0,1,6.23,2.56c.16.17.32.34.49.54a8.86,8.86,0,0,1-6.72,14.62Zm212.61,70.87h-8.85a4.43,4.43,0,0,0,0,8.86h8.85v8.85H470.34a4.43,4.43,0,1,0,0,8.86h22.14v8.86H448.19a4.43,4.43,0,1,0,0,8.86h44.29v8.86H465.91a4.43,4.43,0,0,0,0,8.86h26.57V573h-62a4.43,4.43,0,0,0,0,8.86h62v8.86H240V581.9h62a4.43,4.43,0,1,0,0-8.86H240v-8.86h26.57a4.43,4.43,0,1,0,0-8.86H240v-8.86H284.3a4.43,4.43,0,1,0,0-8.86H240v-8.86h22.14a4.43,4.43,0,1,0,0-8.86H240V511h8.85a4.43,4.43,0,0,0,0-8.86H240v-8.86h65.25a66.47,66.47,0,0,0,10.16,14.29,4.46,4.46,0,0,0,3.31,3.31A67,67,0,0,0,334,521.58a4.43,4.43,0,0,0,3.48,7.16H359.6a4.6,4.6,0,0,0,.91-.09c1.17.06,2.34.09,3.52.09a67,67,0,0,0,10.68-.85,4.45,4.45,0,0,0,2.61.85h13.29a4.42,4.42,0,0,0,3.48-7.16,67,67,0,0,0,15.24-10.67,4.46,4.46,0,0,0,3.31-3.31,66.47,66.47,0,0,0,10.16-14.29h69.68Z"/><path class="cls-1" d="M372.89,502.17H364a4.43,4.43,0,1,0,0,8.86h8.86a4.43,4.43,0,1,0,0-8.86Z"/><path class="cls-1" d="M372.89,537.6H355.17a4.43,4.43,0,0,0,0,8.86h17.72a4.43,4.43,0,0,0,0-8.86Z"/><path class="cls-1" d="M443.76,338.28a9.84,9.84,0,0,1,8.86,5.47l.47.94a4.43,4.43,0,0,0,7.92,0l.47-.94a9.84,9.84,0,0,1,8.86-5.47,4.43,4.43,0,1,0,0-8.86,18.63,18.63,0,0,0-13.29,5.5,18.63,18.63,0,0,0-13.29-5.5,4.43,4.43,0,0,0,0,8.86Z"/><path class="cls-1" d="M452.62,364.85a4.43,4.43,0,1,0,0,8.86,9.86,9.86,0,0,1,8.86,5.48l.47.93a4.42,4.42,0,0,0,5.94,2,4.36,4.36,0,0,0,2-2l.47-.93a9.85,9.85,0,0,1,8.86-5.48,4.43,4.43,0,1,0,0-8.86,18.69,18.69,0,0,0-13.29,5.5A18.71,18.71,0,0,0,452.62,364.85Z"/><path class="cls-1" d="M412.75,356a9.86,9.86,0,0,1,8.86,5.48l.47.94a4.43,4.43,0,0,0,7.92,0l.47-.94a9.88,9.88,0,0,1,8.86-5.48,4.43,4.43,0,1,0,0-8.85A18.66,18.66,0,0,0,426,352.63a18.64,18.64,0,0,0-13.29-5.49,4.43,4.43,0,1,0,0,8.85Z"/><path class="cls-1" d="M401.78,397.15a4.42,4.42,0,0,0,6.05-1.61h0l11.1-19.16a4.43,4.43,0,1,0-7.66-4.45L400.17,391.1A4.44,4.44,0,0,0,401.78,397.15Z"/><path class="cls-1" d="M320.44,395.4a4.43,4.43,0,0,0,7.67-4.42l-11-19.2a4.43,4.43,0,1,0-7.71,4.36l0,.06Z"/><path class="cls-1" d="M284.29,466.6h0c2.45,0,8.86.51,8.86-1.93s-6.41-6.92-8.85-6.92l-22.15,0h0c-2.44,0-13.48,2-13.48,4.47s11,4.39,13.48,4.39Z"/><path class="cls-1" d="M364,387a4.43,4.43,0,0,0,4.43-4.43V342.71a4.43,4.43,0,1,0-8.86,0v39.86A4.43,4.43,0,0,0,364,387Z"/><path class="cls-1" d="M412.75,573H403.9a4.43,4.43,0,0,0,0,8.86h8.85a4.43,4.43,0,1,0,0-8.86Z"/><path class="cls-1" d="M293.16,555.32H284.3a4.43,4.43,0,0,0,0,8.86h8.86a4.43,4.43,0,1,0,0-8.86Z"/><path class="cls-1" d="M439.33,564.18h8.86a4.43,4.43,0,1,0,0-8.86h-8.86a4.43,4.43,0,0,0,0,8.86Z"/><path class="cls-1" d="M328.59,573h-8.85a4.43,4.43,0,1,0,0,8.86h8.85a4.43,4.43,0,0,0,0-8.86Z"/><path class="cls-1" d="M457.05,511h8.86a4.43,4.43,0,0,0,0-8.86h-8.86a4.43,4.43,0,0,0,0,8.86Z"/><path class="cls-1" d="M275.44,502.17h-8.86a4.43,4.43,0,0,0,0,8.86h8.86a4.43,4.43,0,1,0,0-8.86Z"/><text class="cls-2" transform="translate(0 527)">C<tspan class="cls-3" x="3.71" y="0">r</tspan><tspan x="5.56" y="0">eated by supalerk laipawat</tspan></text><text class="cls-2" transform="translate(0 532)">f<tspan class="cls-3" x="1.67" y="0">r</tspan><tspan class="cls-4" x="3.52" y="0">om the Noun P</tspan><tspan class="cls-3" x="38.89" y="0">r</tspan><tspan x="40.75" y="0">oject</tspan></text><path class="cls-5" d="M451.74,86.43c0,3.37-3.51,6.11-7.87,6.11a9,9,0,0,1-5.87-2,44.77,44.77,0,0,1-6.15,17.65,38.42,38.42,0,0,1-10.59-15.6,12.78,12.78,0,0,0-3.14,8.17c0,5.24,3.58,10,9.28,13.2-4.86,5.06-11,8.08-17.61,8.08-15.83,0-28.67-17.16-28.67-38.32S394,45.36,409.79,45.36c15.42,0,28,16.26,28.64,36.67a9.08,9.08,0,0,1,5.44-1.7C448.23,80.33,451.74,83.06,451.74,86.43Z"/></svg>